<svg width="28" height="41" viewBox="0 0 28 41" fill="none" xmlns="http://www.w3.org/2000/svg">
<path fill-rule="evenodd" clip-rule="evenodd" d="M25.1525 23.2609L24.4335 19.6439C24.2735 19.0139 24.1885 18.4179 23.9515 17.9629C23.0895 16.3079 20.6385 13.2599 20.0135 13.0939C19.8698 13.0573 19.7218 13.0398 19.5735 13.0419L21.4835 23.8919L25.1525 23.2609V23.2609Z" stroke="#6F6F6F" stroke-width="1.2"/>
<path fill-rule="evenodd" clip-rule="evenodd" d="M27.0965 26.6091C27.0115 25.4361 25.9805 24.5341 24.7465 24.5601C23.4615 24.5951 22.4055 25.6281 22.4385 26.8981C22.4645 27.8351 23.0725 28.5981 23.9095 28.8951L23.8165 27.9401C23.5368 27.6711 23.3629 27.3105 23.3265 26.9241C23.2665 26.1191 23.8585 25.4541 24.6535 25.4361C25.4475 25.4181 26.1495 26.0581 26.2005 26.8721C26.2175 27.1351 26.1665 27.3891 26.0565 27.5991L26.3355 28.4221C26.5939 28.1994 26.7971 27.9197 26.929 27.6051C27.0609 27.2905 27.1179 26.9495 27.0955 26.6091H27.0965Z" fill="#6F6F6F" stroke="#6F6F6F" stroke-width="0.5"/>
<path fill-rule="evenodd" clip-rule="evenodd" d="M2.87953 23.261L3.59853 19.644C3.75853 19.014 3.84353 18.418 4.07953 17.963C4.94253 16.308 7.39353 13.26 8.01953 13.094C8.14553 13.059 8.29753 13.042 8.45853 13.042L6.53953 23.882L2.87953 23.261Z" stroke="#6F6F6F" stroke-width="1.2"/>
<path fill-rule="evenodd" clip-rule="evenodd" d="M1.00453 26.6091C1.08853 25.4361 2.12053 24.5341 3.35453 24.5601C4.63953 24.5951 5.69553 25.6281 5.66153 26.8981C5.63653 27.8351 5.02753 28.5981 4.19153 28.8951L4.28453 27.9391C4.5643 27.6701 4.73818 27.3095 4.77453 26.9231C4.83353 26.1181 4.24153 25.4531 3.44753 25.4351C2.65253 25.4171 1.95153 26.0571 1.89153 26.8711C1.87553 27.1341 1.92553 27.3881 2.03553 27.5981L1.75653 28.4211C1.50086 28.1968 1.3001 27.9168 1.16972 27.6026C1.03934 27.2885 0.982826 26.9486 1.00453 26.6091Z" fill="#6F6F6F" stroke="#6F6F6F" stroke-width="0.5"/>
<path fill-rule="evenodd" clip-rule="evenodd" d="M12.6315 26.8951L7.54353 26.8811L7.01653 39.3211H12.9125V32.4791L12.6165 31.9191L12.6315 26.8951Z" stroke="#6F6F6F" stroke-width="1.436"/>
<path d="M13.3945 36.757H6.62453M6.83453 31.728H13.0995" stroke="#6F6F6F" stroke-width="0.513"/>
<path fill-rule="evenodd" clip-rule="evenodd" d="M20.5225 26.8889L15.4415 26.9029L15.4495 31.9269L15.1535 32.4939V39.3369H21.0485L20.5225 26.8889Z" stroke="#6F6F6F" stroke-width="1.436"/>
<path d="M14.9675 31.7368H21.2305M21.4505 36.7988H14.6705" stroke="#6F6F6F" stroke-width="0.513"/>
<path fill-rule="evenodd" clip-rule="evenodd" d="M21.3905 25.2491L20.0805 17.3731L19.4125 13.1521C19.3705 12.8581 19.2025 12.6121 18.9315 12.6121H9.11752C8.85552 12.6121 8.68752 12.8581 8.63552 13.1521L7.96852 17.3731L6.65852 25.2481V26.3181H21.3825V25.2481H21.3905V25.2491Z" stroke="#6F6F6F" stroke-width="1.436"/>
<path d="M11.6875 2.979C11.6705 2.979 11.6875 1.298 11.6875 1.298C11.6865 1.2595 11.6931 1.22117 11.707 1.18526C11.7209 1.14934 11.7418 1.11656 11.7685 1.08882C11.7952 1.06107 11.8272 1.03893 11.8626 1.02368C11.898 1.00844 11.936 1.00038 11.9745 1H16.0825C16.1211 1.00025 16.1593 1.00821 16.1948 1.0234C16.2302 1.03859 16.2623 1.06071 16.2892 1.08846C16.316 1.11622 16.337 1.14905 16.351 1.18503C16.3649 1.22101 16.3716 1.25942 16.3705 1.298V2.979" stroke="#6F6F6F" stroke-width="0.851"/>
<path fill-rule="evenodd" clip-rule="evenodd" d="M16.9955 11.404C18.0525 11.404 18.9055 10.519 18.9055 9.42401V4.96801C18.9055 3.87401 18.0525 2.98901 16.9955 2.98901H11.0705C10.0135 2.98901 9.16052 3.87401 9.16052 4.96901V9.42601C9.16052 10.52 10.0135 11.405 11.0705 11.405H16.9955V11.404Z" stroke="#6F6F6F" stroke-width="1.436"/>
</svg>
