<svg width="30" height="32" viewBox="0 0 30 32" fill="none" xmlns="http://www.w3.org/2000/svg">
<path d="M2.20574 7.7641C2.35272 7.42506 2.67608 7.23053 3.00433 7.28055L14.9979 8.98132L26.9915 7.28055C27.3198 7.23609 27.6431 7.43062 27.7901 7.7641L29.8331 12.3995C30.2741 13.3944 29.8037 14.6005 28.863 14.9062L20.8575 17.5018C20.1765 17.7242 19.4465 17.3962 19.084 16.707L14.9979 8.98132L10.9119 16.707C10.5493 17.3962 9.81931 17.7242 9.1383 17.5018L1.13768 14.9062C0.192111 14.6005 -0.273326 13.3944 0.167614 12.3995L2.20574 7.7641V7.7641ZM15.0518 12.5385L17.7415 17.6185C18.4715 18.9969 19.9266 19.6528 21.2936 19.2082L27.5402 17.185V26.467C27.5402 27.6898 26.8053 28.7569 25.7569 29.057L15.7573 31.8917C15.2576 32.0362 14.7333 32.0362 14.2385 31.8917L4.23897 29.057C3.19051 28.7514 2.45561 27.6842 2.45561 26.4614V17.1795L8.70716 19.2082C10.0692 19.6528 11.5292 18.9969 12.2592 17.6185L14.944 12.5385H15.0518Z" fill="#FFCF00"/>
<path d="M7.13042 0H9.30433V4.54545L11.2065 2.77778L12.5217 4L8.21737 8L3.91302 4L5.22824 2.77778L7.13042 4.54545V0Z" fill="#FFCF00"/>
<path d="M20.1739 0H22.3478V4.54545L24.25 2.77778L25.5652 4L21.2609 8L16.9565 4L18.2718 2.77778L20.1739 4.54545V0Z" fill="#FFCF00"/>
</svg>
