<svg width="30" height="32" viewBox="0 0 30 32" fill="none" xmlns="http://www.w3.org/2000/svg">
<g clip-path="url(#clip0_224_113)">
<path d="M20.094 1.45453H9.906C9.30208 1.45453 8.8125 1.92927 8.8125 2.51489V9.17671C8.8125 9.76233 9.30208 10.2371 9.906 10.2371H20.094C20.6979 10.2371 21.1875 9.76233 21.1875 9.17671V2.51489C21.1875 1.92927 20.6979 1.45453 20.094 1.45453Z" fill="#FFCF00" stroke="black" stroke-width="1.5"/>
<path d="M21.7815 22.3127H8.2185C7.61458 22.3127 7.125 22.7874 7.125 23.373V29.485C7.125 30.0707 7.61458 30.5454 8.2185 30.5454H21.7815C22.3854 30.5454 22.875 30.0707 22.875 29.485V23.373C22.875 22.7874 22.3854 22.3127 21.7815 22.3127Z" fill="#FFCF00" stroke="black" stroke-width="1.2"/>
<path d="M22.875 27.2523H7.125C1.5 27.2523 1.5 22.861 1.5 22.861V10.2356C1.5 10.2356 1.5 5.84723 7.125 5.84723H22.875C28.5 5.84577 28.5 10.237 28.5 10.237V22.861C28.5 22.861 28.5 27.2523 22.875 27.2523Z" fill="#FFCF00" stroke="black" stroke-width="1.5"/>
<path d="M12.1875 14.3534C12.1881 14.1738 12.1522 13.9957 12.0818 13.8295C12.0114 13.6633 11.9079 13.5122 11.7772 13.3848C11.6465 13.2575 11.4912 13.1563 11.3202 13.0871C11.1492 13.018 10.9658 12.9822 10.7805 12.9818C10.5953 12.9824 10.4121 13.0183 10.2413 13.0876C10.0704 13.1568 9.91532 13.258 9.7848 13.3854C9.65429 13.5127 9.55093 13.6638 9.48061 13.8299C9.4103 13.996 9.37442 14.1739 9.37501 14.3534C9.37501 15.1098 10.005 15.7251 10.782 15.7251C10.9672 15.7245 11.1504 15.6886 11.3212 15.6193C11.4921 15.5501 11.6472 15.4489 11.7777 15.3215C11.9082 15.1942 12.0116 15.0431 12.0819 14.877C12.1522 14.7109 12.1881 14.533 12.1875 14.3534ZM19.2195 12.9818C19.0342 12.9822 18.8508 13.018 18.6798 13.0871C18.5088 13.1563 18.3535 13.2575 18.2228 13.3848C18.0922 13.5122 17.9887 13.6633 17.9183 13.8295C17.8478 13.9957 17.8119 14.1738 17.8125 14.3534C17.8125 15.1098 18.4425 15.7251 19.2195 15.7251C19.4047 15.7245 19.5879 15.6886 19.7587 15.6193C19.9296 15.5501 20.0847 15.4489 20.2152 15.3215C20.3457 15.1942 20.4491 15.0431 20.5194 14.877C20.5897 14.7109 20.6256 14.533 20.625 14.3534C20.6256 14.1738 20.5897 13.9957 20.5193 13.8295C20.4489 13.6633 20.3454 13.5122 20.2147 13.3848C20.084 13.2575 19.9287 13.1563 19.7577 13.0871C19.5867 13.018 19.4033 12.9822 19.218 12.9818H19.2195ZM19.659 18.5964C19.5759 18.5478 19.4831 18.5172 19.3867 18.5064C19.2904 18.4957 19.1928 18.5051 19.1005 18.534C19.0082 18.563 18.9234 18.6108 18.8518 18.6743C18.7803 18.7377 18.7235 18.8153 18.6855 18.9018C18.678 18.9134 17.994 20.1236 14.991 20.1236C12.0615 20.1236 11.3355 18.9702 11.298 18.9018C11.2645 18.8136 11.2116 18.7335 11.143 18.6671C11.0744 18.6006 10.9917 18.5495 10.9006 18.5171C10.8096 18.4847 10.7124 18.4719 10.6158 18.4796C10.5192 18.4872 10.4254 18.5152 10.341 18.5614C10.1623 18.6803 10.0322 18.8561 9.97328 19.0583C9.91436 19.2606 9.93037 19.4764 10.0185 19.6684C10.113 19.8822 11.0535 21.7716 14.991 21.7716C18.9285 21.7716 19.866 19.8822 19.9605 19.6684C20.0443 19.483 20.0601 19.2753 20.0052 19.08C19.9504 18.8847 19.8282 18.7135 19.659 18.5949V18.5964Z" fill="white"/>
</g>
<defs>
<clipPath id="clip0_224_113">
<rect width="30" height="32" fill="white"/>
</clipPath>
</defs>
</svg>
