<svg width="37" height="37" viewBox="0 0 37 37" fill="none" xmlns="http://www.w3.org/2000/svg">
<g filter="url(#filter0_d_236_114)">
<path d="M26.3135 14.1548C26.3135 16.3956 25.5859 18.4657 24.3603 20.1451L30.5422 26.3307C31.1526 26.941 31.1526 27.932 30.5422 28.5423C29.9318 29.1526 28.9406 29.1526 28.3302 28.5423L22.1482 22.3567C20.4685 23.587 18.3981 24.3095 16.1567 24.3095C10.5461 24.3095 6 19.7643 6 14.1548C6 8.54523 10.5461 4 16.1567 4C21.7674 4 26.3135 8.54523 26.3135 14.1548ZM16.1567 21.185C20.0388 21.185 23.1883 18.036 23.1883 14.1548C23.1883 10.2735 20.0388 7.12454 16.1567 7.12454C12.2747 7.12454 9.12515 10.2735 9.12515 14.1548C9.12515 18.036 12.2747 21.185 16.1567 21.185Z" fill="#FFCF02"/>
<path d="M27.7997 29.0725L27.7999 29.0727C28.7032 29.9758 30.1692 29.9758 31.0725 29.0727C31.9758 28.1696 31.9758 26.7037 31.0727 25.8005C31.0726 25.8005 31.0726 25.8004 31.0725 25.8003L25.3309 20.0553C26.425 18.3548 27.0635 16.3292 27.0635 14.1548C27.0635 8.13088 22.1814 3.25 16.1567 3.25C10.132 3.25 5.25 8.13088 5.25 14.1548C5.25 20.1786 10.132 25.0595 16.1567 25.0595C18.3304 25.0595 20.3567 24.4257 22.0587 23.3281L27.7997 29.0725ZM22.4383 14.1548C22.4383 17.6217 19.6247 20.435 16.1567 20.435C12.6888 20.435 9.87515 17.6217 9.87515 14.1548C9.87515 10.6878 12.6888 7.87454 16.1567 7.87454C19.6247 7.87454 22.4383 10.6878 22.4383 14.1548Z" stroke="white" stroke-width="1.5"/>
</g>
<defs>
<filter id="filter0_d_236_114" x="0.5" y="0.5" width="36" height="36" filterUnits="userSpaceOnUse" color-interpolation-filters="sRGB">
<feFlood flood-opacity="0" result="BackgroundImageFix"/>
<feColorMatrix in="SourceAlpha" type="matrix" values="0 0 0 0 0 0 0 0 0 0 0 0 0 0 0 0 0 0 127 0" result="hardAlpha"/>
<feOffset dy="2"/>
<feGaussianBlur stdDeviation="2"/>
<feComposite in2="hardAlpha" operator="out"/>
<feColorMatrix type="matrix" values="0 0 0 0 1 0 0 0 0 1 0 0 0 0 1 0 0 0 0.5 0"/>
<feBlend mode="normal" in2="BackgroundImageFix" result="effect1_dropShadow_236_114"/>
<feBlend mode="normal" in="SourceGraphic" in2="effect1_dropShadow_236_114" result="shape"/>
</filter>
</defs>
</svg>
