<svg width="39" height="39" viewBox="0 0 39 39" fill="none" xmlns="http://www.w3.org/2000/svg">
<g filter="url(#filter0_d_236_114)">
<path d="M27.9386 14.9671C27.9386 17.3873 27.1528 19.6229 25.8291 21.4367L32.5056 28.1172C33.1648 28.7763 33.1648 29.8466 32.5056 30.5057C31.8464 31.1648 30.7758 31.1648 30.1166 30.5057L23.4401 23.8252C21.626 25.1539 19.3899 25.9343 16.9693 25.9343C10.9098 25.9343 6 21.0254 6 14.9671C6 8.90885 10.9098 4 16.9693 4C23.0288 4 27.9386 8.90885 27.9386 14.9671ZM16.9693 22.5598C21.1619 22.5598 24.5634 19.1589 24.5634 14.9671C24.5634 10.7754 21.1619 7.37451 16.9693 7.37451C12.7767 7.37451 9.37516 10.7754 9.37516 14.9671C9.37516 19.1589 12.7767 22.5598 16.9693 22.5598Z" fill="#FFCF02"/>
<path d="M29.5861 31.0359L29.5863 31.0361C30.5384 31.988 32.0838 31.988 33.0359 31.0361C33.988 30.0841 33.988 28.5388 33.0359 27.5868L26.8006 21.3478C27.9923 19.5123 28.6886 17.3209 28.6886 14.9671C28.6886 8.4945 23.4428 3.25 16.9693 3.25C10.4957 3.25 5.25 8.4945 5.25 14.9671C5.25 21.4398 10.4957 26.6843 16.9693 26.6843C19.3223 26.6843 21.5145 25.9931 23.3516 24.7976L29.5861 31.0359ZM23.8134 14.9671C23.8134 18.7446 20.7478 21.8098 16.9693 21.8098C13.1908 21.8098 10.1252 18.7446 10.1252 14.9671C10.1252 11.1897 13.1908 8.12451 16.9693 8.12451C20.7478 8.12451 23.8134 11.1897 23.8134 14.9671Z" stroke="white" stroke-width="1.5"/>
</g>
<defs>
<filter id="filter0_d_236_114" x="0.5" y="0.5" width="38" height="38" filterUnits="userSpaceOnUse" color-interpolation-filters="sRGB">
<feFlood flood-opacity="0" result="BackgroundImageFix"/>
<feColorMatrix in="SourceAlpha" type="matrix" values="0 0 0 0 0 0 0 0 0 0 0 0 0 0 0 0 0 0 127 0" result="hardAlpha"/>
<feOffset dy="2"/>
<feGaussianBlur stdDeviation="2"/>
<feComposite in2="hardAlpha" operator="out"/>
<feColorMatrix type="matrix" values="0 0 0 0 1 0 0 0 0 1 0 0 0 0 1 0 0 0 0.5 0"/>
<feBlend mode="normal" in2="BackgroundImageFix" result="effect1_dropShadow_236_114"/>
<feBlend mode="normal" in="SourceGraphic" in2="effect1_dropShadow_236_114" result="shape"/>
</filter>
</defs>
</svg>
