<svg width="27" height="27" viewBox="0 0 27 27" fill="none" xmlns="http://www.w3.org/2000/svg">
<path d="M21.9386 10.9671C21.9386 13.3873 21.1528 15.6229 19.8291 17.4367L26.5056 24.1172C27.1648 24.7763 27.1648 25.8466 26.5056 26.5057C25.8464 27.1648 24.7758 27.1648 24.1166 26.5057L17.4401 19.8252C15.626 21.1539 13.3899 21.9343 10.9693 21.9343C4.90981 21.9343 0 17.0254 0 10.9671C0 4.90885 4.90981 0 10.9693 0C17.0288 0 21.9386 4.90885 21.9386 10.9671ZM10.9693 18.5598C15.1619 18.5598 18.5634 15.1589 18.5634 10.9671C18.5634 6.77537 15.1619 3.37451 10.9693 3.37451C6.7767 3.37451 3.37516 6.77537 3.37516 10.9671C3.37516 15.1589 6.7767 18.5598 10.9693 18.5598Z" fill="#FFCF02"/>
</svg>
