<svg width="33" height="40" viewBox="0 0 33 40" fill="none" xmlns="http://www.w3.org/2000/svg">
<g style="mix-blend-mode:darken">
<path d="M1 9.4331L16.224 2.1521L31.814 9.3461V30.4901L17.234 39.0001L1 30.5771V9.4331Z" fill="white" stroke="#757575" stroke-width="1.727"/>
<path d="M23.046 3.544C22.68 2.141 19.741 1 16.342 1C12.667 1 9.544 2.228 9.452 3.895C9.452 3.895 9.636 8.019 9.636 8.106C9.636 10.124 12.943 11.528 16.434 11.528C20.016 11.528 23.231 10.124 23.231 8.106V5.036C23.231 5.036 23.415 4.071 23.048 3.544H23.046Z" fill="white" stroke="#757575" stroke-width="1.152"/>
<path d="M9.91 4.33396C10.002 2.75396 12.85 1.43896 16.34 1.43896C19.831 1.43896 22.68 2.75496 22.771 4.33396C22.863 6.00096 20.015 7.31696 16.341 7.31696C12.666 7.31696 9.818 5.91296 9.911 4.33396H9.91Z" stroke="#757575" stroke-width="1.152"/>
<path d="M1.81599 9.99993L16.816 17.2219V38.9999M16.816 16.9999L31.446 9.87793" stroke="#757575" stroke-width="1.727"/>
</g>
</svg>
